ISO-10303-21;
HEADER;
/* Generated by software containing ST-Developer
 * from STEP Tools, Inc. (www.steptools.com) 
 */
/* OPTION: using custom renumber hook */

FILE_DESCRIPTION(
/* description */ ('STEP AP242 Edition 2',
'CAx-IF Rec.Pracs.---Representation and Presentation of Product Manufa
cturing Information (PMI)---4.0---2014-10-13',
'CAx-IF Rec.Pracs.---3D Tessellated Geometry---0.4---2014-09-14','2;1',
'CAx-IF Rec.Pracs.---User Defined Attributes---1.5---2016-08-15'),
/* implementation_level */ '2;1');

FILE_NAME(
/* name */ 'DHT22 Plate',
/* time_stamp */ '2026-09-13T11:48:42Z',
/* author */ (''),
/* organization */ (''),
/* preprocessor_version */ 'ST-DEVELOPER v20',
/* originating_system */ 'ONSHAPE BY PTC INC, 1.220',
/* authorisation */ '  ');

FILE_SCHEMA (('AP242_MANAGED_MODEL_BASED_3D_ENGINEERING_MIM_LF { 1 0 10303 442 3 1 4 }'));
ENDSEC;

DATA;
#10=SHAPE_REPRESENTATION_RELATIONSHIP('','',#235,#11);
#11=ADVANCED_BREP_SHAPE_REPRESENTATION('',(#233),#381);
#12=CIRCLE('',#239,0.002);
#13=CIRCLE('',#240,0.002);
#14=CIRCLE('',#245,0.002);
#15=CIRCLE('',#246,0.002);
#16=CIRCLE('',#249,0.001);
#17=CIRCLE('',#250,0.001);
#18=CIRCLE('',#253,0.001);
#19=CIRCLE('',#254,0.001);
#20=CYLINDRICAL_SURFACE('',#238,0.002);
#21=CYLINDRICAL_SURFACE('',#244,0.002);
#22=CYLINDRICAL_SURFACE('',#248,0.001);
#23=CYLINDRICAL_SURFACE('',#252,0.001);
#24=ORIENTED_EDGE('',*,*,#80,.F.);
#25=ORIENTED_EDGE('',*,*,#81,.F.);
#26=ORIENTED_EDGE('',*,*,#82,.T.);
#27=ORIENTED_EDGE('',*,*,#83,.T.);
#28=ORIENTED_EDGE('',*,*,#84,.T.);
#29=ORIENTED_EDGE('',*,*,#85,.F.);
#30=ORIENTED_EDGE('',*,*,#86,.F.);
#31=ORIENTED_EDGE('',*,*,#81,.T.);
#32=ORIENTED_EDGE('',*,*,#87,.F.);
#33=ORIENTED_EDGE('',*,*,#88,.F.);
#34=ORIENTED_EDGE('',*,*,#89,.T.);
#35=ORIENTED_EDGE('',*,*,#85,.T.);
#36=ORIENTED_EDGE('',*,*,#90,.F.);
#37=ORIENTED_EDGE('',*,*,#91,.F.);
#38=ORIENTED_EDGE('',*,*,#92,.T.);
#39=ORIENTED_EDGE('',*,*,#88,.T.);
#40=ORIENTED_EDGE('',*,*,#93,.T.);
#41=ORIENTED_EDGE('',*,*,#94,.F.);
#42=ORIENTED_EDGE('',*,*,#95,.F.);
#43=ORIENTED_EDGE('',*,*,#91,.T.);
#44=ORIENTED_EDGE('',*,*,#96,.T.);
#45=ORIENTED_EDGE('',*,*,#97,.F.);
#46=ORIENTED_EDGE('',*,*,#98,.F.);
#47=ORIENTED_EDGE('',*,*,#94,.T.);
#48=ORIENTED_EDGE('',*,*,#99,.T.);
#49=ORIENTED_EDGE('',*,*,#100,.F.);
#50=ORIENTED_EDGE('',*,*,#101,.F.);
#51=ORIENTED_EDGE('',*,*,#97,.T.);
#52=ORIENTED_EDGE('',*,*,#102,.T.);
#53=ORIENTED_EDGE('',*,*,#103,.F.);
#54=ORIENTED_EDGE('',*,*,#104,.T.);
#55=ORIENTED_EDGE('',*,*,#83,.F.);
#56=ORIENTED_EDGE('',*,*,#105,.F.);
#57=ORIENTED_EDGE('',*,*,#100,.T.);
#58=ORIENTED_EDGE('',*,*,#106,.T.);
#59=ORIENTED_EDGE('',*,*,#107,.F.);
#60=ORIENTED_EDGE('',*,*,#82,.F.);
#61=ORIENTED_EDGE('',*,*,#86,.T.);
#62=ORIENTED_EDGE('',*,*,#89,.F.);
#63=ORIENTED_EDGE('',*,*,#92,.F.);
#64=ORIENTED_EDGE('',*,*,#95,.T.);
#65=ORIENTED_EDGE('',*,*,#98,.T.);
#66=ORIENTED_EDGE('',*,*,#101,.T.);
#67=ORIENTED_EDGE('',*,*,#105,.T.);
#68=ORIENTED_EDGE('',*,*,#102,.F.);
#69=ORIENTED_EDGE('',*,*,#106,.F.);
#70=ORIENTED_EDGE('',*,*,#80,.T.);
#71=ORIENTED_EDGE('',*,*,#104,.F.);
#72=ORIENTED_EDGE('',*,*,#99,.F.);
#73=ORIENTED_EDGE('',*,*,#96,.F.);
#74=ORIENTED_EDGE('',*,*,#93,.F.);
#75=ORIENTED_EDGE('',*,*,#90,.T.);
#76=ORIENTED_EDGE('',*,*,#87,.T.);
#77=ORIENTED_EDGE('',*,*,#84,.F.);
#78=ORIENTED_EDGE('',*,*,#103,.T.);
#79=ORIENTED_EDGE('',*,*,#107,.T.);
#80=EDGE_CURVE('',#108,#109,#128,.T.);
#81=EDGE_CURVE('',#110,#108,#129,.T.);
#82=EDGE_CURVE('',#110,#111,#130,.T.);
#83=EDGE_CURVE('',#111,#109,#131,.T.);
#84=EDGE_CURVE('',#108,#112,#12,.T.);
#85=EDGE_CURVE('',#113,#112,#132,.T.);
#86=EDGE_CURVE('',#110,#113,#13,.T.);
#87=EDGE_CURVE('',#114,#112,#133,.T.);
#88=EDGE_CURVE('',#115,#114,#134,.T.);
#89=EDGE_CURVE('',#115,#113,#135,.T.);
#90=EDGE_CURVE('',#116,#114,#136,.T.);
#91=EDGE_CURVE('',#117,#116,#137,.T.);
#92=EDGE_CURVE('',#117,#115,#138,.T.);
#93=EDGE_CURVE('',#116,#118,#139,.T.);
#94=EDGE_CURVE('',#119,#118,#140,.T.);
#95=EDGE_CURVE('',#117,#119,#141,.T.);
#96=EDGE_CURVE('',#118,#120,#14,.T.);
#97=EDGE_CURVE('',#121,#120,#142,.T.);
#98=EDGE_CURVE('',#119,#121,#15,.T.);
#99=EDGE_CURVE('',#120,#122,#143,.T.);
#100=EDGE_CURVE('',#123,#122,#144,.T.);
#101=EDGE_CURVE('',#121,#123,#145,.T.);
#102=EDGE_CURVE('',#124,#124,#16,.T.);
#103=EDGE_CURVE('',#125,#125,#17,.T.);
#104=EDGE_CURVE('',#122,#109,#146,.T.);
#105=EDGE_CURVE('',#123,#111,#147,.T.);
#106=EDGE_CURVE('',#126,#126,#18,.T.);
#107=EDGE_CURVE('',#127,#127,#19,.T.);
#108=VERTEX_POINT('',#322);
#109=VERTEX_POINT('',#323);
#110=VERTEX_POINT('',#325);
#111=VERTEX_POINT('',#327);
#112=VERTEX_POINT('',#331);
#113=VERTEX_POINT('',#333);
#114=VERTEX_POINT('',#337);
#115=VERTEX_POINT('',#339);
#116=VERTEX_POINT('',#343);
#117=VERTEX_POINT('',#345);
#118=VERTEX_POINT('',#349);
#119=VERTEX_POINT('',#351);
#120=VERTEX_POINT('',#355);
#121=VERTEX_POINT('',#357);
#122=VERTEX_POINT('',#361);
#123=VERTEX_POINT('',#363);
#124=VERTEX_POINT('',#367);
#125=VERTEX_POINT('',#369);
#126=VERTEX_POINT('',#375);
#127=VERTEX_POINT('',#377);
#128=LINE('',#321,#148);
#129=LINE('',#324,#149);
#130=LINE('',#326,#150);
#131=LINE('',#328,#151);
#132=LINE('',#332,#152);
#133=LINE('',#336,#153);
#134=LINE('',#338,#154);
#135=LINE('',#340,#155);
#136=LINE('',#342,#156);
#137=LINE('',#344,#157);
#138=LINE('',#346,#158);
#139=LINE('',#348,#159);
#140=LINE('',#350,#160);
#141=LINE('',#352,#161);
#142=LINE('',#356,#162);
#143=LINE('',#360,#163);
#144=LINE('',#362,#164);
#145=LINE('',#364,#165);
#146=LINE('',#371,#166);
#147=LINE('',#372,#167);
#148=VECTOR('',#261,1.);
#149=VECTOR('',#262,1.);
#150=VECTOR('',#263,1.);
#151=VECTOR('',#264,1.);
#152=VECTOR('',#269,1.);
#153=VECTOR('',#274,1.);
#154=VECTOR('',#275,1.);
#155=VECTOR('',#276,1.);
#156=VECTOR('',#279,1.);
#157=VECTOR('',#280,1.);
#158=VECTOR('',#281,1.);
#159=VECTOR('',#284,1.);
#160=VECTOR('',#285,1.);
#161=VECTOR('',#286,1.);
#162=VECTOR('',#291,1.);
#163=VECTOR('',#296,1.);
#164=VECTOR('',#297,1.);
#165=VECTOR('',#298,1.);
#166=VECTOR('',#307,1.);
#167=VECTOR('',#308,1.);
#168=EDGE_LOOP('',(#24,#25,#26,#27));
#169=EDGE_LOOP('',(#28,#29,#30,#31));
#170=EDGE_LOOP('',(#32,#33,#34,#35));
#171=EDGE_LOOP('',(#36,#37,#38,#39));
#172=EDGE_LOOP('',(#40,#41,#42,#43));
#173=EDGE_LOOP('',(#44,#45,#46,#47));
#174=EDGE_LOOP('',(#48,#49,#50,#51));
#175=EDGE_LOOP('',(#52));
#176=EDGE_LOOP('',(#53));
#177=EDGE_LOOP('',(#54,#55,#56,#57));
#178=EDGE_LOOP('',(#58));
#179=EDGE_LOOP('',(#59));
#180=EDGE_LOOP('',(#60,#61,#62,#63,#64,#65,#66,#67));
#181=EDGE_LOOP('',(#68));
#182=EDGE_LOOP('',(#69));
#183=EDGE_LOOP('',(#70,#71,#72,#73,#74,#75,#76,#77));
#184=EDGE_LOOP('',(#78));
#185=EDGE_LOOP('',(#79));
#186=FACE_BOUND('',#168,.T.);
#187=FACE_BOUND('',#169,.T.);
#188=FACE_BOUND('',#170,.T.);
#189=FACE_BOUND('',#171,.T.);
#190=FACE_BOUND('',#172,.T.);
#191=FACE_BOUND('',#173,.T.);
#192=FACE_BOUND('',#174,.T.);
#193=FACE_BOUND('',#175,.T.);
#194=FACE_BOUND('',#176,.T.);
#195=FACE_BOUND('',#177,.T.);
#196=FACE_BOUND('',#178,.T.);
#197=FACE_BOUND('',#179,.T.);
#198=FACE_BOUND('',#180,.T.);
#199=FACE_BOUND('',#181,.T.);
#200=FACE_BOUND('',#182,.T.);
#201=FACE_BOUND('',#183,.T.);
#202=FACE_BOUND('',#184,.T.);
#203=FACE_BOUND('',#185,.T.);
#204=PLANE('',#237);
#205=PLANE('',#241);
#206=PLANE('',#242);
#207=PLANE('',#243);
#208=PLANE('',#247);
#209=PLANE('',#251);
#210=PLANE('',#255);
#211=PLANE('',#256);
#212=ADVANCED_FACE('',(#186),#204,.T.);
#213=ADVANCED_FACE('',(#187),#20,.T.);
#214=ADVANCED_FACE('',(#188),#205,.T.);
#215=ADVANCED_FACE('',(#189),#206,.T.);
#216=ADVANCED_FACE('',(#190),#207,.F.);
#217=ADVANCED_FACE('',(#191),#21,.T.);
#218=ADVANCED_FACE('',(#192),#208,.F.);
#219=ADVANCED_FACE('',(#193,#194),#22,.F.);
#220=ADVANCED_FACE('',(#195),#209,.F.);
#221=ADVANCED_FACE('',(#196,#197),#23,.F.);
#222=ADVANCED_FACE('',(#198,#199,#200),#210,.T.);
#223=ADVANCED_FACE('',(#201,#202,#203),#211,.F.);
#224=CLOSED_SHELL('',(#212,#213,#214,#215,#216,#217,#218,#219,#220,#221,
#222,#223));
#225=STYLED_ITEM('',(#226),#233);
#226=PRESENTATION_STYLE_ASSIGNMENT((#227));
#227=SURFACE_STYLE_USAGE(.BOTH.,#228);
#228=SURFACE_SIDE_STYLE('',(#229));
#229=SURFACE_STYLE_FILL_AREA(#230);
#230=FILL_AREA_STYLE('',(#231));
#231=FILL_AREA_STYLE_COLOUR('',#232);
#232=COLOUR_RGB('',0.615686274509804,0.811764705882353,0.929411764705882);
#233=MANIFOLD_SOLID_BREP('Part 1',#224);
#234=SHAPE_DEFINITION_REPRESENTATION(#386,#235);
#235=SHAPE_REPRESENTATION('Part 1',(#236),#381);
#236=AXIS2_PLACEMENT_3D('',#319,#257,#258);
#237=AXIS2_PLACEMENT_3D('',#320,#259,#260);
#238=AXIS2_PLACEMENT_3D('',#329,#265,#266);
#239=AXIS2_PLACEMENT_3D('',#330,#267,#268);
#240=AXIS2_PLACEMENT_3D('',#334,#270,#271);
#241=AXIS2_PLACEMENT_3D('',#335,#272,#273);
#242=AXIS2_PLACEMENT_3D('',#341,#277,#278);
#243=AXIS2_PLACEMENT_3D('',#347,#282,#283);
#244=AXIS2_PLACEMENT_3D('',#353,#287,#288);
#245=AXIS2_PLACEMENT_3D('',#354,#289,#290);
#246=AXIS2_PLACEMENT_3D('',#358,#292,#293);
#247=AXIS2_PLACEMENT_3D('',#359,#294,#295);
#248=AXIS2_PLACEMENT_3D('',#365,#299,#300);
#249=AXIS2_PLACEMENT_3D('',#366,#301,#302);
#250=AXIS2_PLACEMENT_3D('',#368,#303,#304);
#251=AXIS2_PLACEMENT_3D('',#370,#305,#306);
#252=AXIS2_PLACEMENT_3D('',#373,#309,#310);
#253=AXIS2_PLACEMENT_3D('',#374,#311,#312);
#254=AXIS2_PLACEMENT_3D('',#376,#313,#314);
#255=AXIS2_PLACEMENT_3D('',#378,#315,#316);
#256=AXIS2_PLACEMENT_3D('',#379,#317,#318);
#257=DIRECTION('',(0.,0.,1.));
#258=DIRECTION('',(1.,0.,0.));
#259=DIRECTION('',(1.,0.,0.));
#260=DIRECTION('',(0.,0.,-1.));
#261=DIRECTION('',(0.,-1.,0.));
#262=DIRECTION('',(0.,0.,-1.));
#263=DIRECTION('',(0.,-1.,0.));
#264=DIRECTION('',(0.,0.,-1.));
#265=DIRECTION('',(0.,0.,-1.));
#266=DIRECTION('',(-1.,0.,0.));
#267=DIRECTION('',(0.,0.,1.));
#268=DIRECTION('',(1.,0.,0.));
#269=DIRECTION('',(0.,0.,-1.));
#270=DIRECTION('',(0.,0.,1.));
#271=DIRECTION('',(1.,0.,0.));
#272=DIRECTION('',(1.,0.,0.));
#273=DIRECTION('',(0.,0.,-1.));
#274=DIRECTION('',(0.,-1.,0.));
#275=DIRECTION('',(0.,0.,-1.));
#276=DIRECTION('',(0.,-1.,0.));
#277=DIRECTION('',(0.,1.,0.));
#278=DIRECTION('',(0.,0.,1.));
#279=DIRECTION('',(1.,0.,0.));
#280=DIRECTION('',(0.,0.,-1.));
#281=DIRECTION('',(1.,0.,0.));
#282=DIRECTION('',(1.,0.,0.));
#283=DIRECTION('',(0.,0.,-1.));
#284=DIRECTION('',(0.,-1.,0.));
#285=DIRECTION('',(0.,0.,-1.));
#286=DIRECTION('',(0.,-1.,0.));
#287=DIRECTION('',(0.,0.,-1.));
#288=DIRECTION('',(-1.,0.,0.));
#289=DIRECTION('',(0.,0.,1.));
#290=DIRECTION('',(1.,0.,0.));
#291=DIRECTION('',(0.,0.,-1.));
#292=DIRECTION('',(0.,0.,1.));
#293=DIRECTION('',(1.,0.,0.));
#294=DIRECTION('',(1.,0.,0.));
#295=DIRECTION('',(0.,0.,-1.));
#296=DIRECTION('',(0.,-1.,0.));
#297=DIRECTION('',(0.,0.,-1.));
#298=DIRECTION('',(0.,-1.,0.));
#299=DIRECTION('',(0.,0.,-1.));
#300=DIRECTION('',(-1.,0.,0.));
#301=DIRECTION('',(0.,0.,1.));
#302=DIRECTION('',(1.,0.,0.));
#303=DIRECTION('',(0.,0.,1.));
#304=DIRECTION('',(1.,0.,0.));
#305=DIRECTION('',(0.,1.,0.));
#306=DIRECTION('',(0.,0.,1.));
#307=DIRECTION('',(1.,0.,0.));
#308=DIRECTION('',(1.,0.,0.));
#309=DIRECTION('',(0.,0.,-1.));
#310=DIRECTION('',(-1.,0.,0.));
#311=DIRECTION('',(0.,0.,1.));
#312=DIRECTION('',(1.,0.,0.));
#313=DIRECTION('',(0.,0.,1.));
#314=DIRECTION('',(1.,0.,0.));
#315=DIRECTION('',(0.,0.,1.));
#316=DIRECTION('',(1.,0.,0.));
#317=DIRECTION('',(0.,0.,1.));
#318=DIRECTION('',(1.,0.,0.));
#319=CARTESIAN_POINT('',(0.,0.,0.));
#320=CARTESIAN_POINT('',(-0.00986170955002314,0.00341392896112812,0.002));
#321=CARTESIAN_POINT('',(-0.00986170955002314,0.00341392896112812,0.));
#322=CARTESIAN_POINT('',(-0.00986170955002314,0.00689148168960237,0.));
#323=CARTESIAN_POINT('',(-0.00986170955002314,-6.36237673461437E-5,0.));
#324=CARTESIAN_POINT('',(-0.00986170955002314,0.00689148168960237,0.002));
#325=CARTESIAN_POINT('',(-0.00986170955002314,0.00689148168960237,0.002));
#326=CARTESIAN_POINT('',(-0.00986170955002314,0.00341392896112812,0.002));
#327=CARTESIAN_POINT('',(-0.00986170955002314,-6.36237673461437E-5,0.002));
#328=CARTESIAN_POINT('',(-0.00986170955002314,-6.36237673461437E-5,0.002));
#329=CARTESIAN_POINT('',(-0.00837695863842964,0.00823144987225533,0.002));
#330=CARTESIAN_POINT('',(-0.00837695863842964,0.00823144987225533,0.));
#331=CARTESIAN_POINT('',(-0.00986170955002314,0.00957141805490828,0.));
#332=CARTESIAN_POINT('',(-0.00986170955002314,0.00957141805490828,0.002));
#333=CARTESIAN_POINT('',(-0.00986170955002314,0.00957141805490828,0.002));
#334=CARTESIAN_POINT('',(-0.00837695863842964,0.00823144987225533,0.002));
#335=CARTESIAN_POINT('',(-0.00986170955002314,0.0135038971437811,0.002));
#336=CARTESIAN_POINT('',(-0.00986170955002314,0.0135038971437811,0.));
#337=CARTESIAN_POINT('',(-0.00986170955002314,0.0174363762326539,0.));
#338=CARTESIAN_POINT('',(-0.00986170955002314,0.0174363762326539,0.002));
#339=CARTESIAN_POINT('',(-0.00986170955002314,0.0174363762326539,0.002));
#340=CARTESIAN_POINT('',(-0.00986170955002314,0.0135038971437811,0.002));
#341=CARTESIAN_POINT('',(-0.0188617095500232,0.0174363762326539,0.002));
#342=CARTESIAN_POINT('',(-0.0188617095500232,0.0174363762326539,0.));
#343=CARTESIAN_POINT('',(-0.0278617095500232,0.0174363762326539,0.));
#344=CARTESIAN_POINT('',(-0.0278617095500232,0.0174363762326539,0.002));
#345=CARTESIAN_POINT('',(-0.0278617095500232,0.0174363762326539,0.002));
#346=CARTESIAN_POINT('',(-0.0188617095500232,0.0174363762326539,0.002));
#347=CARTESIAN_POINT('',(-0.0278617095500232,0.0134866775106639,0.002));
#348=CARTESIAN_POINT('',(-0.0278617095500232,0.0134866775106639,0.));
#349=CARTESIAN_POINT('',(-0.0278617095500232,0.00953697878867388,0.));
#350=CARTESIAN_POINT('',(-0.0278617095500232,0.00953697878867388,0.002));
#351=CARTESIAN_POINT('',(-0.0278617095500232,0.00953697878867388,0.002));
#352=CARTESIAN_POINT('',(-0.0278617095500232,0.0134866775106639,0.002));
#353=CARTESIAN_POINT('',(-0.029378825118485,0.00823376723565161,0.002));
#354=CARTESIAN_POINT('',(-0.029378825118485,0.00823376723565161,0.));
#355=CARTESIAN_POINT('',(-0.0278617095500232,0.00693055568262935,0.));
#356=CARTESIAN_POINT('',(-0.0278617095500232,0.00693055568262935,0.002));
#357=CARTESIAN_POINT('',(-0.0278617095500232,0.00693055568262935,0.002));
#358=CARTESIAN_POINT('',(-0.029378825118485,0.00823376723565161,0.002));
#359=CARTESIAN_POINT('',(-0.0278617095500232,0.0034334659576416,0.002));
#360=CARTESIAN_POINT('',(-0.0278617095500232,0.0034334659576416,0.));
#361=CARTESIAN_POINT('',(-0.0278617095500232,-6.36237673461437E-5,0.));
#362=CARTESIAN_POINT('',(-0.0278617095500232,-6.36237673461437E-5,0.002));
#363=CARTESIAN_POINT('',(-0.0278617095500232,-6.36237673461437E-5,0.002));
#364=CARTESIAN_POINT('',(-0.0278617095500232,0.0034334659576416,0.002));
#365=CARTESIAN_POINT('',(-0.00837695863842964,0.00823144987225533,0.002));
#366=CARTESIAN_POINT('',(-0.00837695863842964,0.00823144987225533,0.002));
#367=CARTESIAN_POINT('',(-0.00737695863842964,0.00823144987225533,0.002));
#368=CARTESIAN_POINT('',(-0.00837695863842964,0.00823144987225533,0.));
#369=CARTESIAN_POINT('',(-0.00737695863842964,0.00823144987225533,0.));
#370=CARTESIAN_POINT('',(-0.0188617095500232,-6.36237673461437E-5,0.002));
#371=CARTESIAN_POINT('',(-0.0188617095500232,-6.36237673461437E-5,0.));
#372=CARTESIAN_POINT('',(-0.0188617095500232,-6.36237673461437E-5,0.002));
#373=CARTESIAN_POINT('',(-0.029378825118485,0.00823376723565161,0.002));
#374=CARTESIAN_POINT('',(-0.029378825118485,0.00823376723565161,0.002));
#375=CARTESIAN_POINT('',(-0.028378825118485,0.00823376723565161,0.002));
#376=CARTESIAN_POINT('',(-0.029378825118485,0.00823376723565161,0.));
#377=CARTESIAN_POINT('',(-0.028378825118485,0.00823376723565161,0.));
#378=CARTESIAN_POINT('',(-0.0188778918784573,0.00868637623265386,0.002));
#379=CARTESIAN_POINT('',(-0.0188778918784573,0.00868637623265386,0.));
#380=MECHANICAL_DESIGN_GEOMETRIC_PRESENTATION_REPRESENTATION('',(#225),
#381);
#381=(
GEOMETRIC_REPRESENTATION_CONTEXT(3)
GLOBAL_UNCERTAINTY_ASSIGNED_CONTEXT((#382))
GLOBAL_UNIT_ASSIGNED_CONTEXT((#385,#384,#383))
REPRESENTATION_CONTEXT('Part 1','TOP_LEVEL_ASSEMBLY_PART')
);
#382=UNCERTAINTY_MEASURE_WITH_UNIT(LENGTH_MEASURE(1.E-8),#385,
'DISTANCE_ACCURACY_VALUE','Maximum Tolerance applied to model');
#383=(
NAMED_UNIT(*)
SI_UNIT($,.STERADIAN.)
SOLID_ANGLE_UNIT()
);
#384=(
NAMED_UNIT(*)
PLANE_ANGLE_UNIT()
SI_UNIT($,.RADIAN.)
);
#385=(
LENGTH_UNIT()
NAMED_UNIT(*)
SI_UNIT($,.METRE.)
);
#386=PRODUCT_DEFINITION_SHAPE('','',#387);
#387=PRODUCT_DEFINITION('','',#389,#388);
#388=PRODUCT_DEFINITION_CONTEXT('',#395,'design');
#389=PRODUCT_DEFINITION_FORMATION_WITH_SPECIFIED_SOURCE('','',#391,
 .NOT_KNOWN.);
#390=PRODUCT_RELATED_PRODUCT_CATEGORY('','',(#391));
#391=PRODUCT('Part 1','Part 1','Part 1',(#393));
#392=PRODUCT_CATEGORY('','');
#393=PRODUCT_CONTEXT('',#395,'mechanical');
#394=APPLICATION_PROTOCOL_DEFINITION('international standard',
'ap242_managed_model_based_3d_engineering',2020,#395);
#395=APPLICATION_CONTEXT('managed model based 3d engineering');
ENDSEC;
END-ISO-10303-21;
