ISO-10303-21;
HEADER;
/* Generated by software containing ST-Developer
 * from STEP Tools, Inc. (www.steptools.com) 
 */
/* OPTION: using custom renumber hook */

FILE_DESCRIPTION(
/* description */ ('STEP AP242 Edition 2',
'CAx-IF Rec.Pracs.---Representation and Presentation of Product Manufa
cturing Information (PMI)---4.0---2014-10-13',
'CAx-IF Rec.Pracs.---3D Tessellated Geometry---0.4---2014-09-14','2;1',
'CAx-IF Rec.Pracs.---User Defined Attributes---1.5---2016-08-15'),
/* implementation_level */ '2;1');

FILE_NAME(
/* name */ 'ESP Holding Plate',
/* time_stamp */ '2026-09-13T11:47:38Z',
/* author */ (''),
/* organization */ (''),
/* preprocessor_version */ 'ST-DEVELOPER v20',
/* originating_system */ 'ONSHAPE BY PTC INC, 1.220',
/* authorisation */ '  ');

FILE_SCHEMA (('AP242_MANAGED_MODEL_BASED_3D_ENGINEERING_MIM_LF { 1 0 10303 442 3 1 4 }'));
ENDSEC;

DATA;
#10=SHAPE_REPRESENTATION_RELATIONSHIP('','',#175,#11);
#11=ADVANCED_BREP_SHAPE_REPRESENTATION('',(#173),#279);
#12=CIRCLE('',#180,0.002);
#13=CIRCLE('',#181,0.002);
#14=CIRCLE('',#186,0.001);
#15=CIRCLE('',#187,0.001);
#16=CYLINDRICAL_SURFACE('',#179,0.002);
#17=CYLINDRICAL_SURFACE('',#185,0.001);
#18=ORIENTED_EDGE('',*,*,#58,.F.);
#19=ORIENTED_EDGE('',*,*,#59,.F.);
#20=ORIENTED_EDGE('',*,*,#60,.T.);
#21=ORIENTED_EDGE('',*,*,#61,.T.);
#22=ORIENTED_EDGE('',*,*,#62,.T.);
#23=ORIENTED_EDGE('',*,*,#63,.F.);
#24=ORIENTED_EDGE('',*,*,#64,.F.);
#25=ORIENTED_EDGE('',*,*,#59,.T.);
#26=ORIENTED_EDGE('',*,*,#65,.T.);
#27=ORIENTED_EDGE('',*,*,#66,.F.);
#28=ORIENTED_EDGE('',*,*,#67,.F.);
#29=ORIENTED_EDGE('',*,*,#63,.T.);
#30=ORIENTED_EDGE('',*,*,#68,.T.);
#31=ORIENTED_EDGE('',*,*,#69,.F.);
#32=ORIENTED_EDGE('',*,*,#70,.F.);
#33=ORIENTED_EDGE('',*,*,#66,.T.);
#34=ORIENTED_EDGE('',*,*,#71,.T.);
#35=ORIENTED_EDGE('',*,*,#72,.F.);
#36=ORIENTED_EDGE('',*,*,#73,.F.);
#37=ORIENTED_EDGE('',*,*,#69,.T.);
#38=ORIENTED_EDGE('',*,*,#74,.F.);
#39=ORIENTED_EDGE('',*,*,#61,.F.);
#40=ORIENTED_EDGE('',*,*,#75,.T.);
#41=ORIENTED_EDGE('',*,*,#72,.T.);
#42=ORIENTED_EDGE('',*,*,#76,.T.);
#43=ORIENTED_EDGE('',*,*,#77,.F.);
#44=ORIENTED_EDGE('',*,*,#60,.F.);
#45=ORIENTED_EDGE('',*,*,#64,.T.);
#46=ORIENTED_EDGE('',*,*,#67,.T.);
#47=ORIENTED_EDGE('',*,*,#70,.T.);
#48=ORIENTED_EDGE('',*,*,#73,.T.);
#49=ORIENTED_EDGE('',*,*,#75,.F.);
#50=ORIENTED_EDGE('',*,*,#76,.F.);
#51=ORIENTED_EDGE('',*,*,#58,.T.);
#52=ORIENTED_EDGE('',*,*,#74,.T.);
#53=ORIENTED_EDGE('',*,*,#71,.F.);
#54=ORIENTED_EDGE('',*,*,#68,.F.);
#55=ORIENTED_EDGE('',*,*,#65,.F.);
#56=ORIENTED_EDGE('',*,*,#62,.F.);
#57=ORIENTED_EDGE('',*,*,#77,.T.);
#58=EDGE_CURVE('',#78,#79,#92,.T.);
#59=EDGE_CURVE('',#80,#78,#93,.T.);
#60=EDGE_CURVE('',#80,#81,#94,.T.);
#61=EDGE_CURVE('',#81,#79,#95,.T.);
#62=EDGE_CURVE('',#78,#82,#96,.T.);
#63=EDGE_CURVE('',#83,#82,#97,.T.);
#64=EDGE_CURVE('',#80,#83,#98,.T.);
#65=EDGE_CURVE('',#82,#84,#12,.T.);
#66=EDGE_CURVE('',#85,#84,#99,.T.);
#67=EDGE_CURVE('',#83,#85,#13,.T.);
#68=EDGE_CURVE('',#84,#86,#100,.T.);
#69=EDGE_CURVE('',#87,#86,#101,.T.);
#70=EDGE_CURVE('',#85,#87,#102,.T.);
#71=EDGE_CURVE('',#86,#88,#103,.T.);
#72=EDGE_CURVE('',#89,#88,#104,.T.);
#73=EDGE_CURVE('',#87,#89,#105,.T.);
#74=EDGE_CURVE('',#79,#88,#106,.T.);
#75=EDGE_CURVE('',#81,#89,#107,.T.);
#76=EDGE_CURVE('',#90,#90,#14,.T.);
#77=EDGE_CURVE('',#91,#91,#15,.T.);
#78=VERTEX_POINT('',#237);
#79=VERTEX_POINT('',#238);
#80=VERTEX_POINT('',#240);
#81=VERTEX_POINT('',#242);
#82=VERTEX_POINT('',#246);
#83=VERTEX_POINT('',#248);
#84=VERTEX_POINT('',#252);
#85=VERTEX_POINT('',#254);
#86=VERTEX_POINT('',#258);
#87=VERTEX_POINT('',#260);
#88=VERTEX_POINT('',#264);
#89=VERTEX_POINT('',#266);
#90=VERTEX_POINT('',#273);
#91=VERTEX_POINT('',#275);
#92=LINE('',#236,#108);
#93=LINE('',#239,#109);
#94=LINE('',#241,#110);
#95=LINE('',#243,#111);
#96=LINE('',#245,#112);
#97=LINE('',#247,#113);
#98=LINE('',#249,#114);
#99=LINE('',#253,#115);
#100=LINE('',#257,#116);
#101=LINE('',#259,#117);
#102=LINE('',#261,#118);
#103=LINE('',#263,#119);
#104=LINE('',#265,#120);
#105=LINE('',#267,#121);
#106=LINE('',#269,#122);
#107=LINE('',#270,#123);
#108=VECTOR('',#194,1.);
#109=VECTOR('',#195,1.);
#110=VECTOR('',#196,1.);
#111=VECTOR('',#197,1.);
#112=VECTOR('',#200,1.);
#113=VECTOR('',#201,1.);
#114=VECTOR('',#202,1.);
#115=VECTOR('',#207,1.);
#116=VECTOR('',#212,1.);
#117=VECTOR('',#213,1.);
#118=VECTOR('',#214,1.);
#119=VECTOR('',#217,1.);
#120=VECTOR('',#218,1.);
#121=VECTOR('',#219,1.);
#122=VECTOR('',#222,1.);
#123=VECTOR('',#223,1.);
#124=EDGE_LOOP('',(#18,#19,#20,#21));
#125=EDGE_LOOP('',(#22,#23,#24,#25));
#126=EDGE_LOOP('',(#26,#27,#28,#29));
#127=EDGE_LOOP('',(#30,#31,#32,#33));
#128=EDGE_LOOP('',(#34,#35,#36,#37));
#129=EDGE_LOOP('',(#38,#39,#40,#41));
#130=EDGE_LOOP('',(#42));
#131=EDGE_LOOP('',(#43));
#132=EDGE_LOOP('',(#44,#45,#46,#47,#48,#49));
#133=EDGE_LOOP('',(#50));
#134=EDGE_LOOP('',(#51,#52,#53,#54,#55,#56));
#135=EDGE_LOOP('',(#57));
#136=FACE_BOUND('',#124,.T.);
#137=FACE_BOUND('',#125,.T.);
#138=FACE_BOUND('',#126,.T.);
#139=FACE_BOUND('',#127,.T.);
#140=FACE_BOUND('',#128,.T.);
#141=FACE_BOUND('',#129,.T.);
#142=FACE_BOUND('',#130,.T.);
#143=FACE_BOUND('',#131,.T.);
#144=FACE_BOUND('',#132,.T.);
#145=FACE_BOUND('',#133,.T.);
#146=FACE_BOUND('',#134,.T.);
#147=FACE_BOUND('',#135,.T.);
#148=PLANE('',#177);
#149=PLANE('',#178);
#150=PLANE('',#182);
#151=PLANE('',#183);
#152=PLANE('',#184);
#153=PLANE('',#188);
#154=PLANE('',#189);
#155=ADVANCED_FACE('',(#136),#148,.T.);
#156=ADVANCED_FACE('',(#137),#149,.F.);
#157=ADVANCED_FACE('',(#138),#16,.T.);
#158=ADVANCED_FACE('',(#139),#150,.F.);
#159=ADVANCED_FACE('',(#140),#151,.F.);
#160=ADVANCED_FACE('',(#141),#152,.T.);
#161=ADVANCED_FACE('',(#142,#143),#17,.F.);
#162=ADVANCED_FACE('',(#144,#145),#153,.T.);
#163=ADVANCED_FACE('',(#146,#147),#154,.F.);
#164=CLOSED_SHELL('',(#155,#156,#157,#158,#159,#160,#161,#162,#163));
#165=STYLED_ITEM('',(#166),#173);
#166=PRESENTATION_STYLE_ASSIGNMENT((#167));
#167=SURFACE_STYLE_USAGE(.BOTH.,#168);
#168=SURFACE_SIDE_STYLE('',(#169));
#169=SURFACE_STYLE_FILL_AREA(#170);
#170=FILL_AREA_STYLE('',(#171));
#171=FILL_AREA_STYLE_COLOUR('',#172);
#172=COLOUR_RGB('',0.615686274509804,0.811764705882353,0.929411764705882);
#173=MANIFOLD_SOLID_BREP('Part 1',#164);
#174=SHAPE_DEFINITION_REPRESENTATION(#284,#175);
#175=SHAPE_REPRESENTATION('Part 1',(#176),#279);
#176=AXIS2_PLACEMENT_3D('',#234,#190,#191);
#177=AXIS2_PLACEMENT_3D('',#235,#192,#193);
#178=AXIS2_PLACEMENT_3D('',#244,#198,#199);
#179=AXIS2_PLACEMENT_3D('',#250,#203,#204);
#180=AXIS2_PLACEMENT_3D('',#251,#205,#206);
#181=AXIS2_PLACEMENT_3D('',#255,#208,#209);
#182=AXIS2_PLACEMENT_3D('',#256,#210,#211);
#183=AXIS2_PLACEMENT_3D('',#262,#215,#216);
#184=AXIS2_PLACEMENT_3D('',#268,#220,#221);
#185=AXIS2_PLACEMENT_3D('',#271,#224,#225);
#186=AXIS2_PLACEMENT_3D('',#272,#226,#227);
#187=AXIS2_PLACEMENT_3D('',#274,#228,#229);
#188=AXIS2_PLACEMENT_3D('',#276,#230,#231);
#189=AXIS2_PLACEMENT_3D('',#277,#232,#233);
#190=DIRECTION('',(0.,0.,1.));
#191=DIRECTION('',(1.,0.,0.));
#192=DIRECTION('',(-1.,-1.46081976924363E-16,0.));
#193=DIRECTION('',(1.46081976924363E-16,-1.,0.));
#194=DIRECTION('',(-1.46081976924363E-16,1.,0.));
#195=DIRECTION('',(0.,0.,-1.));
#196=DIRECTION('',(-1.46081976924363E-16,1.,0.));
#197=DIRECTION('',(0.,0.,-1.));
#198=DIRECTION('',(0.,1.,0.));
#199=DIRECTION('',(0.,0.,1.));
#200=DIRECTION('',(1.,0.,0.));
#201=DIRECTION('',(0.,0.,-1.));
#202=DIRECTION('',(1.,0.,0.));
#203=DIRECTION('',(0.,0.,-1.));
#204=DIRECTION('',(-1.,0.,0.));
#205=DIRECTION('',(0.,0.,1.));
#206=DIRECTION('',(1.,0.,0.));
#207=DIRECTION('',(0.,0.,-1.));
#208=DIRECTION('',(0.,0.,1.));
#209=DIRECTION('',(1.,0.,0.));
#210=DIRECTION('',(0.,1.,0.));
#211=DIRECTION('',(0.,0.,1.));
#212=DIRECTION('',(1.,0.,0.));
#213=DIRECTION('',(0.,0.,-1.));
#214=DIRECTION('',(1.,0.,0.));
#215=DIRECTION('',(-1.,1.82602471155453E-16,0.));
#216=DIRECTION('',(-1.82602471155453E-16,-1.,0.));
#217=DIRECTION('',(1.82602471155453E-16,1.,0.));
#218=DIRECTION('',(0.,0.,-1.));
#219=DIRECTION('',(1.82602471155453E-16,1.,0.));
#220=DIRECTION('',(0.,1.,0.));
#221=DIRECTION('',(0.,0.,1.));
#222=DIRECTION('',(1.,0.,0.));
#223=DIRECTION('',(1.,0.,0.));
#224=DIRECTION('',(0.,0.,-1.));
#225=DIRECTION('',(-1.,0.,0.));
#226=DIRECTION('',(0.,0.,1.));
#227=DIRECTION('',(1.,0.,0.));
#228=DIRECTION('',(0.,0.,1.));
#229=DIRECTION('',(1.,0.,0.));
#230=DIRECTION('',(0.,0.,1.));
#231=DIRECTION('',(1.,0.,0.));
#232=DIRECTION('',(0.,0.,1.));
#233=DIRECTION('',(1.,0.,0.));
#234=CARTESIAN_POINT('',(0.,0.,0.));
#235=CARTESIAN_POINT('',(-0.0098326949775219,-0.011875,0.002));
#236=CARTESIAN_POINT('',(-0.0098326949775219,-0.011875,0.));
#237=CARTESIAN_POINT('',(-0.00983269497752189,-0.02375,0.));
#238=CARTESIAN_POINT('',(-0.0098326949775219,0.,0.));
#239=CARTESIAN_POINT('',(-0.00983269497752189,-0.02375,0.002));
#240=CARTESIAN_POINT('',(-0.00983269497752189,-0.02375,0.002));
#241=CARTESIAN_POINT('',(-0.0098326949775219,-0.011875,0.002));
#242=CARTESIAN_POINT('',(-0.0098326949775219,0.,0.002));
#243=CARTESIAN_POINT('',(-0.0098326949775219,0.,0.002));
#244=CARTESIAN_POINT('',(-0.00757372038130633,-0.02375,0.002));
#245=CARTESIAN_POINT('',(-0.00757372038130633,-0.02375,0.));
#246=CARTESIAN_POINT('',(-0.00531474578509077,-0.02375,0.));
#247=CARTESIAN_POINT('',(-0.00531474578509077,-0.02375,0.002));
#248=CARTESIAN_POINT('',(-0.00531474578509077,-0.02375,0.002));
#249=CARTESIAN_POINT('',(-0.00757372038130633,-0.02375,0.002));
#250=CARTESIAN_POINT('',(-0.0035826949775219,-0.02475,0.002));
#251=CARTESIAN_POINT('',(-0.0035826949775219,-0.02475,0.));
#252=CARTESIAN_POINT('',(-0.00185064416995302,-0.02375,0.));
#253=CARTESIAN_POINT('',(-0.00185064416995302,-0.02375,0.002));
#254=CARTESIAN_POINT('',(-0.00185064416995302,-0.02375,0.002));
#255=CARTESIAN_POINT('',(-0.0035826949775219,-0.02475,0.002));
#256=CARTESIAN_POINT('',(0.000408330426262542,-0.02375,0.002));
#257=CARTESIAN_POINT('',(0.000408330426262542,-0.02375,0.));
#258=CARTESIAN_POINT('',(0.0026673050224781,-0.02375,0.));
#259=CARTESIAN_POINT('',(0.0026673050224781,-0.02375,0.002));
#260=CARTESIAN_POINT('',(0.0026673050224781,-0.02375,0.002));
#261=CARTESIAN_POINT('',(0.000408330426262542,-0.02375,0.002));
#262=CARTESIAN_POINT('',(0.0026673050224781,-0.011875,0.002));
#263=CARTESIAN_POINT('',(0.0026673050224781,-0.011875,0.));
#264=CARTESIAN_POINT('',(0.0026673050224781,0.,0.));
#265=CARTESIAN_POINT('',(0.0026673050224781,0.,0.002));
#266=CARTESIAN_POINT('',(0.0026673050224781,0.,0.002));
#267=CARTESIAN_POINT('',(0.0026673050224781,-0.011875,0.002));
#268=CARTESIAN_POINT('',(-0.0035826949775219,0.,0.002));
#269=CARTESIAN_POINT('',(-0.0035826949775219,0.,0.));
#270=CARTESIAN_POINT('',(-0.0035826949775219,0.,0.002));
#271=CARTESIAN_POINT('',(-0.0035826949775219,-0.02475,0.002));
#272=CARTESIAN_POINT('',(-0.0035826949775219,-0.02475,0.002));
#273=CARTESIAN_POINT('',(-0.00258269497752189,-0.02475,0.002));
#274=CARTESIAN_POINT('',(-0.0035826949775219,-0.02475,0.));
#275=CARTESIAN_POINT('',(-0.00258269497752189,-0.02475,0.));
#276=CARTESIAN_POINT('',(-0.0035826949775219,-0.013375,0.002));
#277=CARTESIAN_POINT('',(-0.0035826949775219,-0.013375,0.));
#278=MECHANICAL_DESIGN_GEOMETRIC_PRESENTATION_REPRESENTATION('',(#165),
#279);
#279=(
GEOMETRIC_REPRESENTATION_CONTEXT(3)
GLOBAL_UNCERTAINTY_ASSIGNED_CONTEXT((#280))
GLOBAL_UNIT_ASSIGNED_CONTEXT((#283,#282,#281))
REPRESENTATION_CONTEXT('Part 1','TOP_LEVEL_ASSEMBLY_PART')
);
#280=UNCERTAINTY_MEASURE_WITH_UNIT(LENGTH_MEASURE(1.E-8),#283,
'DISTANCE_ACCURACY_VALUE','Maximum Tolerance applied to model');
#281=(
NAMED_UNIT(*)
SI_UNIT($,.STERADIAN.)
SOLID_ANGLE_UNIT()
);
#282=(
NAMED_UNIT(*)
PLANE_ANGLE_UNIT()
SI_UNIT($,.RADIAN.)
);
#283=(
LENGTH_UNIT()
NAMED_UNIT(*)
SI_UNIT($,.METRE.)
);
#284=PRODUCT_DEFINITION_SHAPE('','',#285);
#285=PRODUCT_DEFINITION('','',#287,#286);
#286=PRODUCT_DEFINITION_CONTEXT('',#293,'design');
#287=PRODUCT_DEFINITION_FORMATION_WITH_SPECIFIED_SOURCE('','',#289,
 .NOT_KNOWN.);
#288=PRODUCT_RELATED_PRODUCT_CATEGORY('','',(#289));
#289=PRODUCT('Part 1','Part 1','Part 1',(#291));
#290=PRODUCT_CATEGORY('','');
#291=PRODUCT_CONTEXT('',#293,'mechanical');
#292=APPLICATION_PROTOCOL_DEFINITION('international standard',
'ap242_managed_model_based_3d_engineering',2020,#293);
#293=APPLICATION_CONTEXT('managed model based 3d engineering');
ENDSEC;
END-ISO-10303-21;
